<svg width="95" height="64" viewBox="0 0 95 64" fill="none" xmlns="http://www.w3.org/2000/svg">
<mask id="mask0_10_1883" style="mask-type:luminance" maskUnits="userSpaceOnUse" x="0" y="0" width="95" height="64">
<path d="M95 63.7783L95 0.221924L0 0.221924L0 63.7783L95 63.7783Z" fill="white"/>
</mask>
<g mask="url(#mask0_10_1883)">
<path d="M95.0001 33.1546C94.9991 29.5964 93.5873 26.1843 91.0752 23.6683C88.563 21.1523 85.156 19.7384 81.6033 19.7374H75.5173V13.6422C75.5188 11.8789 75.173 10.1327 74.4999 8.50335C73.8269 6.87404 72.8395 5.39366 71.5946 4.14688C70.3497 2.90009 68.8714 1.91141 67.2446 1.23737C65.6176 0.563332 63.874 0.217182 62.1134 0.218724L48.7212 0.218724V19.7342L36.5493 19.7342V13.639C36.5498 10.0799 35.1386 6.66628 32.6264 4.14898C30.114 1.63168 26.7065 0.216819 23.1526 0.215576L0.00744629 0.215576V13.6453C0.00811005 15.4069 0.355331 17.151 1.02969 18.7782C1.70339 20.4053 2.69086 21.8835 3.93523 23.1285C5.17959 24.3734 6.65678 25.3606 8.28248 26.0337C9.90818 26.7068 11.6496 27.0527 13.4085 27.0516V27.0688H22.2508L22.2461 27.0328L78.5798 27.0328L78.5728 27.0625H81.6009C83.2156 27.0656 84.7635 27.7083 85.9068 28.8502C87.05 29.9921 87.6958 31.5406 87.7033 33.1577L87.7033 56.4671H81.6009C79.987 56.4622 78.4407 55.8173 77.3002 54.6736C76.1598 53.5299 75.5179 51.9805 75.515 50.3641L75.515 29.821H68.2103L68.2103 50.361C68.2101 53.9191 69.6212 57.3316 72.1331 59.8478C74.6451 62.364 78.0521 63.7778 81.6048 63.7782H95.0017L95.0001 33.1546ZM56.0267 19.7374V7.54231L62.1127 7.54231C63.7292 7.54499 65.279 8.18838 66.4233 9.33199C67.5676 10.4755 68.2135 12.0263 68.2196 13.6453V19.7405L56.0267 19.7374ZM13.4018 19.7374C11.7881 19.7347 10.2407 19.0918 9.09934 17.9496C7.95734 16.8072 7.31374 15.2585 7.30972 13.6422V7.53917L23.1486 7.53917C24.7636 7.54064 26.3117 8.18436 27.4531 9.32878C28.5944 10.4733 29.2351 12.0247 29.2345 13.6422V19.7374L13.4018 19.7374ZM48.722 29.821V45.2152H42.6299C41.0162 45.2093 39.4705 44.5641 38.3302 43.4206C37.19 42.2772 36.5478 40.7283 36.5439 39.1122V29.821H29.2345V39.1154C29.2336 40.8776 29.5795 42.6227 30.2524 44.251C30.9253 45.8792 31.9121 47.3588 33.1563 48.6048C34.4005 49.8509 35.8778 50.8392 37.5035 51.5131C39.1293 52.1871 40.8718 52.5335 42.6314 52.5326V52.5388H56.0283V29.821H48.722Z" fill="#1BAC4B"/>
</g>
</svg>
