<svg width="458" height="43" viewBox="0 0 458 43" fill="none" xmlns="http://www.w3.org/2000/svg">
<g clip-path="url(#clip0_10_2032)">
<path d="M25.3302 14.937C25.4008 11.2674 22.3728 8.45044 18.2093 8.45044H9.59883C9.39812 8.4505 9.20402 8.5222 9.05147 8.65264C8.89891 8.78307 8.79792 8.96367 8.76667 9.16194L5.316 30.7218C5.30057 30.8195 5.30649 30.9194 5.33335 31.0146C5.36022 31.1097 5.4074 31.198 5.47163 31.2732C5.53587 31.3484 5.61564 31.4088 5.70545 31.4502C5.79527 31.4916 5.89299 31.5131 5.99189 31.5131H11.0937L10.2958 36.5061C10.2804 36.6038 10.2863 36.7038 10.3132 36.799C10.3401 36.8942 10.3874 36.9825 10.4517 37.0577C10.516 37.1329 10.5958 37.1933 10.6857 37.2347C10.7756 37.2761 10.8734 37.2975 10.9724 37.2974H15.1279C15.3291 37.2974 15.5078 37.2248 15.6601 37.0949C15.8124 36.9644 15.8375 36.7844 15.8684 36.5859L17.0883 29.4083C17.1193 29.2105 17.2202 28.9533 17.3732 28.8227C17.5255 28.6922 17.6587 28.6209 17.8592 28.6203H20.4032C24.4803 28.6203 27.9402 25.7229 28.5725 21.6919C29.0196 18.8301 27.7924 16.2274 25.3302 14.937Z" fill="#001C64"/>
<path d="M12.198 23.5625L10.9274 31.6204L10.1295 36.6741C10.114 36.7718 10.12 36.8718 10.1469 36.967C10.1738 37.0622 10.221 37.1505 10.2853 37.2257C10.3496 37.3009 10.4295 37.3613 10.5194 37.4027C10.6093 37.4441 10.7071 37.4654 10.806 37.4654H15.2043C15.4049 37.4652 15.5988 37.3934 15.7512 37.263C15.9036 37.1325 16.0045 36.952 16.0358 36.7539L17.195 29.4081C17.2262 29.21 17.3272 29.0296 17.4796 28.8993C17.632 28.769 17.826 28.6973 18.0265 28.6973H20.616C24.6931 28.6973 28.1523 25.7234 28.7847 21.6924C29.2331 18.8313 27.7929 16.2286 25.3307 14.9375C25.3241 15.2421 25.2978 15.5461 25.2509 15.8475C24.6186 19.8778 21.1587 22.8523 17.0816 22.8523H13.0295C12.8291 22.8524 12.6352 22.9239 12.4828 23.0541C12.3304 23.1843 12.2294 23.3645 12.198 23.5625Z" fill="#0070E0"/>
<path d="M10.9264 31.6203H5.80939C5.71045 31.6203 5.61267 31.599 5.5228 31.5576C5.43294 31.5162 5.35312 31.4558 5.28886 31.3806C5.2246 31.3053 5.17743 31.2171 5.15061 31.1218C5.12379 31.0266 5.11795 30.9267 5.1335 30.829L8.5835 8.94863C8.61477 8.75043 8.71579 8.56991 8.86836 8.43958C9.02093 8.30926 9.21502 8.2377 9.41567 8.23779H18.2101C22.373 8.23779 25.4009 11.2678 25.3304 14.9373C24.2945 14.394 23.0772 14.0834 21.7432 14.0834H14.4113C14.2108 14.0836 14.0169 14.1553 13.8645 14.2856C13.7121 14.4159 13.6112 14.5962 13.5798 14.7942L12.1984 23.5623L10.9264 31.6203Z" fill="#003087"/>
</g>
<g clip-path="url(#clip1_10_2032)">
<path d="M138.407 8.21387C132.514 8.21387 127.222 11.2803 127.222 16.9074C127.222 23.3881 136.569 23.8307 136.569 27.0552C136.569 28.4146 134.985 29.6475 132.323 29.6475C128.521 29.6475 125.67 27.9404 125.67 27.9404L124.466 33.6307C124.466 33.6307 127.729 35.0849 132.102 35.0849C138.565 35.0849 143.635 31.892 143.635 26.1384C143.635 19.31 134.256 18.8675 134.256 15.8642C134.256 14.7894 135.555 13.6197 138.217 13.6197C141.227 13.6197 143.698 14.8526 143.698 14.8526L144.902 9.35194C144.87 9.35194 142.177 8.21387 138.407 8.21387ZM84.4177 8.62484L84.2593 9.44677C84.2593 9.44677 86.7306 9.88936 88.9801 10.8061C91.8634 11.8494 92.0535 12.45 92.5604 14.3152L97.8516 34.6423H104.949L115.816 8.62484H108.751L101.749 26.3281L98.8971 11.3119C98.6437 9.60484 97.313 8.62484 95.6654 8.62484H84.4177ZM118.668 8.62484L113.123 34.6423H119.872L125.385 8.62484H118.668ZM156.245 8.62484C154.629 8.62484 153.773 9.47839 153.14 10.9958L143.254 34.6423H150.32L151.682 30.6907H160.3L161.124 34.6423H167.366L161.948 8.62484H156.245ZM157.163 15.6745L159.255 25.443H153.647L157.163 15.6745Z" fill="#1434CB"/>
</g>
<g clip-path="url(#clip2_10_2032)">
<path d="M262.883 5.14771H244.493V38.1504H262.883V5.14771Z" fill="#FF5F00"/>
<path d="M245.661 21.6495C245.661 15.2356 248.638 9.11318 253.659 5.14819C244.552 -2.02378 231.358 -0.449447 224.178 8.70502C216.997 17.8012 218.573 30.9789 227.739 38.1509C235.386 44.1567 246.07 44.1567 253.717 38.1509C248.638 34.1859 245.661 28.0635 245.661 21.6495Z" fill="#EB001B"/>
<path d="M287.694 21.6495C287.694 33.253 278.295 42.6407 266.677 42.6407C261.949 42.6407 257.395 41.0663 253.717 38.1509C262.824 30.9789 264.401 17.8012 257.22 8.64671C256.169 7.36392 255.002 6.13943 253.717 5.14819C262.824 -2.02378 276.076 -0.449447 283.199 8.70502C286.117 12.3785 287.694 16.9265 287.694 21.6495Z" fill="#F79E1B"/>
<path d="M285.709 34.6527V33.953H286.001V33.8364H285.3V33.953H285.592V34.6527H285.709ZM287.052 34.6527V33.8364H286.818L286.585 34.4195L286.351 33.8364H286.118V34.6527H286.293V34.0114L286.526 34.5361H286.701L286.935 34.0114V34.6527H287.052Z" fill="#F79E1B"/>
</g>
<g clip-path="url(#clip3_10_2032)">
<path d="M322.297 31.1126V22.4249C322.297 19.1447 320.2 16.9578 316.825 16.9181C315.047 16.8982 313.21 17.435 311.932 19.3832C310.973 17.8525 309.456 16.9181 307.339 16.9181C305.861 16.9181 304.403 17.3555 303.265 18.9657V17.2759H300.249V31.1126H303.305V23.4388C303.305 21.0333 304.643 19.761 306.7 19.761C308.697 19.761 309.715 21.0731 309.715 23.4189V31.1126H312.771V23.4388C312.771 21.0333 314.169 19.761 316.166 19.761C318.223 19.761 319.221 21.0731 319.221 23.4189V31.1126H322.297ZM367.51 17.2759H362.558V13.0613H359.502V17.2759H356.686V20.0194H359.502V26.3413C359.502 29.5619 360.76 31.4704 364.335 31.4704C365.653 31.4704 367.151 31.0728 368.109 30.3969L367.231 27.8124C366.332 28.3293 365.333 28.5878 364.555 28.5878C363.037 28.5878 362.558 27.6534 362.558 26.2618V20.0194H367.51V17.2759ZM393.292 16.9181C391.555 16.9181 390.417 17.7332 389.618 18.9459V17.2759H386.622V31.1126H389.638V23.3593C389.638 21.0731 390.636 19.8007 392.613 19.8007C393.232 19.8007 393.871 19.8802 394.511 20.1387L395.449 17.2958C394.79 17.0374 393.911 16.9181 393.292 16.9181ZM354.29 18.3693C352.832 17.4151 350.835 16.9181 348.618 16.9181C345.103 16.9181 342.827 18.588 342.827 21.3514C342.827 23.6177 344.504 25.0093 347.62 25.4268L349.037 25.6256C350.695 25.8642 351.474 26.2817 351.474 27.0769C351.474 28.1504 350.376 28.7468 348.299 28.7468C346.202 28.7468 344.684 28.0709 343.665 27.2956L342.247 29.6414C343.905 30.8541 346.002 31.4306 348.279 31.4306C352.293 31.4306 354.629 29.542 354.629 26.9178C354.629 24.4924 352.792 23.2201 349.776 22.7828L348.358 22.5839C347.04 22.405 346.002 22.1466 346.002 21.2321C346.002 20.2182 347 19.6019 348.658 19.6019C350.435 19.6019 352.153 20.2778 352.992 20.7947L354.29 18.3693ZM435.33 16.9181C433.593 16.9181 432.455 17.7332 431.656 18.9459V17.2759H428.66V31.1126H431.676V23.3593C431.676 21.0731 432.674 19.8007 434.651 19.8007C435.271 19.8007 435.91 19.8802 436.549 20.1387L437.487 17.2958C436.808 17.0374 435.95 16.9181 435.33 16.9181ZM396.348 24.1942C396.348 28.389 399.284 31.4704 403.757 31.4704C405.854 31.4704 407.252 31.0132 408.77 29.8203L407.312 27.395C406.173 28.21 404.975 28.6474 403.677 28.6474C401.261 28.6275 399.483 26.8781 399.483 24.2141C399.483 21.5502 401.261 19.8206 403.677 19.7808C404.995 19.7808 406.173 20.2182 407.312 21.0333L408.77 18.6079C407.252 17.4151 405.854 16.9578 403.757 16.9578C399.303 16.9181 396.348 19.9995 396.348 24.1942ZM424.686 24.1942V17.2759H421.671V18.9459C420.712 17.6934 419.254 16.9181 417.277 16.9181C413.383 16.9181 410.327 19.9598 410.327 24.1942C410.327 28.4287 413.383 31.4704 417.277 31.4704C419.254 31.4704 420.712 30.6951 421.671 29.4426V31.1126H424.686V24.1942ZM413.423 24.1942C413.423 21.7689 415.02 19.761 417.637 19.761C420.133 19.761 421.83 21.6695 421.83 24.1942C421.83 26.719 420.153 28.6275 417.637 28.6275C415.02 28.6275 413.423 26.6196 413.423 24.1942ZM376.916 16.9181C372.842 16.9181 369.987 19.8802 369.987 24.1942C369.987 28.5878 372.962 31.4704 377.116 31.4704C379.213 31.4704 381.13 30.9535 382.808 29.5221L381.33 27.2956C380.172 28.2299 378.674 28.7468 377.296 28.7468C375.339 28.7468 373.581 27.8522 373.142 25.3672H383.467C383.487 24.9895 383.527 24.6117 383.527 24.2141C383.507 19.8802 380.831 16.9181 376.916 16.9181ZM376.877 19.6218C378.834 19.6218 380.072 20.8345 380.391 22.9816H373.182C373.501 20.9737 374.72 19.6218 376.877 19.6218ZM452.765 24.1942V11.7095H449.749V18.9459C448.791 17.6934 447.333 16.9181 445.356 16.9181C441.461 16.9181 438.406 19.9598 438.406 24.1942C438.406 28.4287 441.461 31.4704 445.356 31.4704C447.333 31.4704 448.791 30.6951 449.749 29.4426V31.1126H452.765V24.1942ZM456.3 29.8402C456.419 29.8402 456.539 29.8601 456.639 29.8999C456.739 29.9396 456.839 29.9993 456.919 30.0788C456.999 30.1583 457.059 30.2577 457.118 30.3571C457.158 30.4565 457.198 30.5758 457.198 30.6951C457.198 30.8144 457.178 30.9336 457.118 31.033C457.078 31.1324 456.999 31.2318 456.919 31.3114C456.839 31.3909 456.739 31.4505 456.639 31.5102C456.539 31.5499 456.419 31.5897 456.3 31.5897C456.18 31.5897 456.06 31.5698 455.94 31.5102C455.82 31.4704 455.74 31.3909 455.661 31.3114C455.581 31.2318 455.521 31.1324 455.461 31.033C455.421 30.9336 455.381 30.8144 455.381 30.6951C455.381 30.5758 455.401 30.4565 455.461 30.3571C455.501 30.2577 455.581 30.1583 455.661 30.0788C455.74 29.9993 455.84 29.9396 455.94 29.8999C456.04 29.8601 456.16 29.8402 456.3 29.8402ZM456.3 31.3909C456.399 31.3909 456.479 31.371 456.559 31.3312C456.639 31.2915 456.719 31.2517 456.779 31.1921C456.839 31.1324 456.899 31.0529 456.919 30.9734C456.959 30.8939 456.979 30.7945 456.979 30.715C456.979 30.6156 456.959 30.536 456.919 30.4565C456.879 30.377 456.839 30.2975 456.779 30.2378C456.719 30.1782 456.639 30.1185 456.559 30.0987C456.479 30.0589 456.38 30.039 456.3 30.039C456.2 30.039 456.12 30.0589 456.02 30.0987C455.94 30.1384 455.86 30.1782 455.8 30.2378C455.74 30.2975 455.681 30.377 455.661 30.4565C455.621 30.536 455.601 30.6354 455.601 30.715C455.601 30.8144 455.621 30.8939 455.661 30.9734C455.701 31.0529 455.74 31.1324 455.8 31.1921C455.86 31.2517 455.94 31.3114 456.02 31.3312C456.1 31.371 456.2 31.3909 456.3 31.3909ZM456.34 30.2975C456.439 30.2975 456.519 30.3174 456.579 30.377C456.639 30.4168 456.659 30.4963 456.659 30.5758C456.659 30.6354 456.639 30.6951 456.599 30.7348C456.559 30.7746 456.479 30.8144 456.399 30.8144L456.659 31.1126H456.439L456.2 30.8144H456.12V31.1126H455.94V30.2975H456.34ZM456.14 30.4565V30.6752H456.34C456.38 30.6752 456.419 30.6752 456.459 30.6553C456.479 30.6354 456.499 30.6156 456.499 30.5758C456.499 30.536 456.479 30.5162 456.459 30.4963C456.439 30.4764 456.399 30.4764 456.34 30.4764H456.14V30.4565ZM441.501 24.1942C441.501 21.7689 443.099 19.761 445.715 19.761C448.212 19.761 449.909 21.6695 449.909 24.1942C449.909 26.719 448.231 28.6275 445.715 28.6275C443.099 28.6275 441.501 26.6196 441.501 24.1942ZM339.352 24.1942V17.2759H336.336V18.9459C335.378 17.6934 333.92 16.9181 331.943 16.9181C328.048 16.9181 324.993 19.9598 324.993 24.1942C324.993 28.4287 328.048 31.4704 331.943 31.4704C333.92 31.4704 335.378 30.6951 336.336 29.4426V31.1126H339.352V24.1942ZM328.088 24.1942C328.088 21.7689 329.686 19.761 332.302 19.761C334.798 19.761 336.496 21.6695 336.496 24.1942C336.496 26.719 334.818 28.6275 332.302 28.6275C329.686 28.6275 328.088 26.6196 328.088 24.1942Z" fill="#EB001B"/>
</g>
<defs>
<clipPath id="clip0_10_2032">
<rect width="31.6514" height="31.6514" fill="white" transform="translate(0.291504 5.82397)"/>
</clipPath>
<clipPath id="clip1_10_2032">
<rect width="83.1064" height="26.8711" fill="white" transform="translate(84.2593 8.21387)"/>
</clipPath>
<clipPath id="clip2_10_2032">
<rect width="68.0113" height="41.9823" fill="white" transform="translate(219.682 0.658447)"/>
</clipPath>
<clipPath id="clip3_10_2032">
<rect width="156.949" height="19.8802" fill="white" transform="translate(300.249 11.7095)"/>
</clipPath>
</defs>
</svg>
