<svg width="80" height="80" viewBox="0 0 80 80" fill="none" xmlns="http://www.w3.org/2000/svg">
<g clip-path="url(#clip0_10_2050)">
<path d="M47.7907 41.7073C49.076 41.7073 50.207 41.0047 50.7896 39.9423L56.9245 28.8207C57.5585 27.6897 56.736 26.2845 55.4336 26.2845H30.0716L28.4607 22.8572H22.8571V26.2845H26.2844L32.4536 39.2911L30.1401 43.4724C28.8892 45.7687 30.5343 48.5619 33.139 48.5619H53.7028V45.1346H33.139L35.024 41.7073H47.7907ZM31.6995 29.7118H52.5204L47.7907 38.28H35.7609L31.6995 29.7118ZM33.139 50.2756C31.254 50.2756 29.7289 51.8179 29.7289 53.7029C29.7289 55.5879 31.254 57.1302 33.139 57.1302C35.024 57.1302 36.5663 55.5879 36.5663 53.7029C36.5663 51.8179 35.024 50.2756 33.139 50.2756ZM50.2755 50.2756C48.3905 50.2756 46.8653 51.8179 46.8653 53.7029C46.8653 55.5879 48.3905 57.1302 50.2755 57.1302C52.1605 57.1302 53.7028 55.5879 53.7028 53.7029C53.7028 51.8179 52.1605 50.2756 50.2755 50.2756Z" fill="black"/>
</g>
<rect x="0.952381" y="0.952381" width="78.0952" height="78.0952" rx="39.0476" stroke="#F5F5F5" stroke-width="1.90476"/>
<defs>
<clipPath id="clip0_10_2050">
<rect width="80" height="80" rx="40" fill="white"/>
</clipPath>
</defs>
</svg>
