<svg width="18" height="15" viewBox="0 0 18 15" fill="none" xmlns="http://www.w3.org/2000/svg">
<g clip-path="url(#clip0_19_3952)">
<path d="M0 3.46638C0 2.53129 0.267931 1.73548 0.843486 1.16846L1.83582 2.16323C0.734329 3.26742 1.69689 6.69938 4.8426 9.8528C7.98831 13.0062 11.4119 13.9712 12.5134 12.867L13.5057 13.8617C11.6401 15.7319 7.40283 14.3989 3.85026 10.8476C1.38927 8.3706 0 5.57529 0 3.46638Z" fill="#009A46"/>
<path d="M6.26164 14.7175C5.32885 14.7175 4.53498 14.4489 3.96935 13.872L4.96168 12.8772C6.06317 13.9814 9.48674 13.0165 12.6324 9.86306C15.7781 6.70963 16.7407 3.27768 15.6392 2.17348L16.6316 1.17871C18.4971 3.04888 17.1674 7.29655 13.6248 10.8578C11.1539 13.3249 8.35547 14.7175 6.26164 14.7175Z" fill="#FF5805"/>
<path d="M13.9423 9.43504C13.337 7.69419 12.1065 5.83397 10.4791 4.20255C6.92651 0.64127 2.68923 -0.681775 0.823639 1.17845C0.694635 1.31771 0.813715 1.64599 1.08165 1.91458C1.34958 2.18316 1.68697 2.30254 1.81597 2.17322C2.91747 1.06902 6.34103 2.03395 9.48673 5.18737C10.9752 6.67953 12.0867 8.35074 12.6225 9.89264C13.0889 11.2455 13.0492 12.3398 12.5034 12.8869C12.3744 13.0162 12.4836 13.3445 12.7614 13.623C13.0393 13.9016 13.3668 14.011 13.4958 13.8817C14.4484 12.9167 14.6072 11.3351 13.9423 9.43504Z" fill="#F5AFCB"/>
<path d="M16.6216 1.17847C15.669 0.223494 14.0912 0.0643311 12.1958 0.72088C10.4592 1.32769 8.60355 2.56121 6.97612 4.19263C3.42356 7.75391 2.10375 12.0016 3.96934 13.8717C4.09835 14.0011 4.43574 13.8916 4.70367 13.6131C4.9716 13.3346 5.09068 13.0063 4.96168 12.877C3.86018 11.7728 4.82275 8.34082 7.96846 5.1874C9.45696 3.69524 11.1241 2.5811 12.6523 2.04392C14.0019 1.57638 15.0934 1.61617 15.6392 2.1633C15.7682 2.29262 16.0957 2.18319 16.3735 1.90466C16.6514 1.62612 16.7606 1.31774 16.6216 1.17847Z" fill="#FF9B00"/>
</g>
<defs>
<clipPath id="clip0_19_3952">
<rect width="17.4651" height="14.3943" fill="white" transform="translate(0 0.322754)"/>
</clipPath>
</defs>
</svg>
