<svg width="14" height="15" viewBox="0 0 14 15" fill="none" xmlns="http://www.w3.org/2000/svg">
<g clip-path="url(#clip0_19_3948)">
<path d="M12.1525 0.73291H0.700519C0.335031 0.73291 0 1.06798 0 1.46396V2.74331C0 3.13929 0.335031 3.47436 0.700519 3.47436H12.1525C12.5484 3.47436 12.853 3.13929 12.8835 2.74331V1.46396C12.8835 1.06798 12.5484 0.73291 12.1525 0.73291ZM12.1525 7.9216H0.700519C0.517775 7.9216 0.335031 8.01298 0.182744 8.13482C0.0609147 8.25666 0 8.43943 0 8.65265V9.932C0 10.328 0.335031 10.663 0.700519 10.663H12.1525C12.5484 10.663 12.853 10.3584 12.8835 9.932V8.65265C12.8835 8.2262 12.5484 7.9216 12.1525 7.9216ZM7.15748 11.5159H0.700519C0.517775 11.5159 0.335031 11.5769 0.213202 11.7292C0.0913721 11.851 0 12.0338 0 12.247V13.5263C0 13.9223 0.335031 14.2574 0.700519 14.2574H7.12702C7.52297 14.2574 7.82754 13.9223 7.82754 13.5263V12.2165C7.858 11.8205 7.55343 11.5159 7.15748 11.5159ZM12.8835 4.32725H0.700519C0.517775 4.32725 0.335031 4.38818 0.213202 4.54048C0.0913721 4.66232 0 4.84508 0 5.05831V6.33765C0 6.73364 0.335031 7.0687 0.700519 7.0687H12.853C13.249 7.0687 13.5535 6.73364 13.5535 6.33765V5.05831C13.584 4.66232 13.2794 4.32725 12.8835 4.32725Z" fill="#00C3F7"/>
</g>
<defs>
<clipPath id="clip0_19_3948">
<rect width="13.584" height="13.494" fill="white" transform="translate(0 0.73291)"/>
</clipPath>
</defs>
</svg>
